<svg width="16" height="12" viewBox="0 0 16 12" fill="none" xmlns="http://www.w3.org/2000/svg">
<path d="M2 0C1.60218 0 1.22064 0.158035 0.93934 0.43934C0.658035 0.720644 0.5 1.10218 0.5 1.5V4.5C0.897825 4.5 1.27936 4.65804 1.56066 4.93934C1.84196 5.22064 2 5.60218 2 6C2 6.39782 1.84196 6.77936 1.56066 7.06066C1.27936 7.34196 0.897825 7.5 0.5 7.5V10.5C0.5 10.8978 0.658035 11.2794 0.93934 11.5607C1.22064 11.842 1.60218 12 2 12H14C14.3978 12 14.7794 11.842 15.0607 11.5607C15.342 11.2794 15.5 10.8978 15.5 10.5V7.5C15.1022 7.5 14.7206 7.34196 14.4393 7.06066C14.158 6.77936 14 6.39782 14 6C14 5.60218 14.158 5.22064 14.4393 4.93934C14.7206 4.65804 15.1022 4.5 15.5 4.5V1.5C15.5 1.10218 15.342 0.720644 15.0607 0.43934C14.7794 0.158035 14.3978 0 14 0H2ZM10.625 2.25L11.75 3.375L5.375 9.75L4.25 8.625L10.625 2.25ZM5.6075 2.28C6.3425 2.28 6.935 2.8725 6.935 3.6075C6.935 3.95958 6.79514 4.29723 6.54618 4.54618C6.29723 4.79514 5.95958 4.935 5.6075 4.935C4.8725 4.935 4.28 4.3425 4.28 3.6075C4.28 3.25543 4.41986 2.91777 4.66882 2.66882C4.91777 2.41986 5.25543 2.28 5.6075 2.28ZM10.3925 7.065C11.1275 7.065 11.72 7.6575 11.72 8.3925C11.72 8.74457 11.5801 9.08223 11.3312 9.33118C11.0822 9.58014 10.7446 9.72 10.3925 9.72C9.6575 9.72 9.065 9.1275 9.065 8.3925C9.065 8.04042 9.20486 7.70277 9.45382 7.45382C9.70277 7.20486 10.0404 7.065 10.3925 7.065Z" fill="#333333"/>
</svg>
