<svg width="24" height="24" viewBox="0 0 24 24" fill="none" xmlns="http://www.w3.org/2000/svg">
<path d="M0 4.80002C0 3.48002 1.08 2.40002 2.4 2.40002H20.4C20.7183 2.40002 21.0235 2.52645 21.2485 2.7515C21.4736 2.97654 21.6 3.28176 21.6 3.60002V4.80002H2.4V6.00002H22.8C23.1183 6.00002 23.4235 6.12645 23.6485 6.3515C23.8736 6.57654 24 6.88176 24 7.20002V19.2C24 19.8365 23.7471 20.447 23.2971 20.8971C22.847 21.3472 22.2365 21.6 21.6 21.6H2.4C1.76348 21.6 1.15303 21.3472 0.702944 20.8971C0.252856 20.447 0 19.8365 0 19.2V4.80002ZM19.8 15.6C20.2774 15.6 20.7352 15.4104 21.0728 15.0728C21.4104 14.7353 21.6 14.2774 21.6 13.8C21.6 13.3226 21.4104 12.8648 21.0728 12.5272C20.7352 12.1897 20.2774 12 19.8 12C19.3226 12 18.8648 12.1897 18.5272 12.5272C18.1896 12.8648 18 13.3226 18 13.8C18 14.2774 18.1896 14.7353 18.5272 15.0728C18.8648 15.4104 19.3226 15.6 19.8 15.6Z" fill="white"/>
</svg>
