<svg width="34" height="34" viewBox="0 0 34 34" fill="none" xmlns="http://www.w3.org/2000/svg">
<rect width="34" height="34" rx="7.4375" fill="url(#paint0_linear_196_3488)"/>
<path d="M24.4375 9.46694C23.4634 8.48298 22.3031 7.70284 21.0244 7.17199C19.7456 6.64115 18.3739 6.37024 16.9894 6.37506C11.1881 6.37506 6.46 11.1032 6.46 16.9044C6.46 18.7638 6.94875 20.5701 7.8625 22.1638L6.375 27.6251L11.9531 26.1588C13.4938 26.9982 15.2256 27.4444 16.9894 27.4444C22.7906 27.4444 27.5188 22.7163 27.5188 16.9151C27.5188 14.0994 26.4244 11.4538 24.4375 9.46694ZM16.9894 25.6594C15.4169 25.6594 13.8762 25.2344 12.5269 24.4376L12.2081 24.2463L8.89313 25.1176L9.775 21.8876L9.5625 21.5582C8.68886 20.1631 8.22496 18.5505 8.22375 16.9044C8.22375 12.0807 12.155 8.14944 16.9787 8.14944C19.3162 8.14944 21.5156 9.06319 23.1625 10.7207C23.978 11.5324 24.6242 12.4979 25.0637 13.5612C25.5033 14.6245 25.7274 15.7645 25.7231 16.9151C25.7444 21.7388 21.8131 25.6594 16.9894 25.6594ZM21.7919 19.1144C21.5262 18.9869 20.23 18.3494 19.9962 18.2538C19.7519 18.1688 19.5819 18.1263 19.4013 18.3813C19.2206 18.6469 18.7212 19.2419 18.5725 19.4119C18.4237 19.5926 18.2644 19.6138 17.9987 19.4757C17.7331 19.3482 16.8831 19.0613 15.8844 18.1688C15.0981 17.4676 14.5775 16.6069 14.4181 16.3413C14.2694 16.0757 14.3969 15.9376 14.535 15.7994C14.6519 15.6826 14.8006 15.4913 14.9281 15.3426C15.0556 15.1938 15.1088 15.0769 15.1938 14.9069C15.2788 14.7263 15.2362 14.5776 15.1725 14.4501C15.1087 14.3226 14.5775 13.0263 14.365 12.4951C14.1525 11.9851 13.9294 12.0488 13.77 12.0382H13.26C13.0794 12.0382 12.8031 12.1019 12.5587 12.3676C12.325 12.6332 11.645 13.2707 11.645 14.5669C11.645 15.8632 12.5906 17.1169 12.7181 17.2869C12.8456 17.4676 14.5775 20.1238 17.2125 21.2607C17.8394 21.5369 18.3281 21.6963 18.7106 21.8132C19.3375 22.0151 19.9113 21.9832 20.3681 21.9194C20.8781 21.8451 21.93 21.2819 22.1425 20.6657C22.3656 20.0494 22.3656 19.5288 22.2913 19.4119C22.2169 19.2951 22.0575 19.2419 21.7919 19.1144Z" fill="white"/>
<defs>
<linearGradient id="paint0_linear_196_3488" x1="17" y1="0" x2="17" y2="34" gradientUnits="userSpaceOnUse">
<stop stop-color="#60D669"/>
<stop offset="1" stop-color="#60D669"/>
</linearGradient>
</defs>
</svg>
