<svg width="66" height="24" viewBox="0 0 66 24" fill="none" xmlns="http://www.w3.org/2000/svg">
<g clip-path="url(#clip0_558_1884)">
<path d="M62.369 14.7097V12.6441V8.51613H56.1755H52.0475V6.45058H62.369V2.32258H52.0475H45.8539V6.45058V8.51613V12.6441H52.0475H56.1755V14.7097H45.8539V18.8377H56.1755H62.369V14.7097ZM64.001 13.4183V20.129C64.001 20.2653 63.9453 20.3985 63.8493 20.4945C63.7533 20.5905 63.6201 20.6462 63.4839 20.6462H56.7732V21.6774H64.5151C64.6514 21.6774 64.7845 21.6217 64.8805 21.5257C64.9765 21.4297 65.0323 21.2965 65.0323 21.1603V13.4183H64.001ZM8.2591 0H0.517161C0.380903 0 0.247742 0.0557419 0.151742 0.151742C0.0557419 0.247742 0 0.380903 0 0.517161V8.2591H1.03123V1.54839C1.03123 1.41213 1.08697 1.27897 1.18297 1.18297C1.27897 1.08697 1.41213 1.03123 1.54839 1.03123H8.2591V0ZM14.8862 24H19.0142V14.7097H14.8862V24ZM18.5001 2.32258H8.69265V6.45058H14.8862V12.6441H19.0142V2.83665C19.0142 2.70039 18.9585 2.56723 18.8625 2.47123C18.7665 2.37523 18.6333 2.31948 18.497 2.31948L18.5001 2.32258ZM6.63019 2.32258H3.01626C2.88 2.32258 2.74684 2.37832 2.65084 2.47432C2.55484 2.57032 2.4991 2.70348 2.4991 2.83974V18.3236C2.4991 18.4599 2.55484 18.593 2.65084 18.689C2.74684 18.785 2.88 18.8408 3.01626 18.8408H12.8237V14.7128H6.63019V2.32568V2.32258ZM8.69574 12.6441H12.8237V8.51613H8.69574V12.6441ZM9.72697 9.54735H11.7925V11.6129H9.72697V9.54735ZM21.0828 2.32258V6.45058H33.4699V8.51613H25.2108H21.0828V12.6441V18.8377H25.2108V12.7061L31.4044 18.8377H37.5979L31.135 12.6441H33.4668H37.5948V8.51613V6.45058V2.32258H33.4668H21.0797H21.0828ZM39.6635 18.8377H43.7915V2.32258H39.6635V18.8377Z" fill="white"/>
</g>
<defs>
<clipPath id="clip0_558_1884">
<rect width="65.0323" height="24" fill="white"/>
</clipPath>
</defs>
</svg>
